<?xml version="1.0" encoding="utf-8"?>
<!-- Generator: Adobe Illustrator 19.1.0, SVG Export Plug-In . SVG Version: 6.00 Build 0)  -->
<svg version="1.1" id="Layer_1" xmlns="http://www.w3.org/2000/svg" xmlns:xlink="http://www.w3.org/1999/xlink" x="0px" y="0px"
	 viewBox="0 0 512 512" style="enable-background:new 0 0 512 512;" xml:space="preserve">
<style type="text/css">
	.st0{fill:#FFFFFF;}
</style>
<g>
	<path class="st0" d="M314.1,136H197.9c-32.5,0-58.9,26.1-58.9,58.2v123.6c0,32.1,26.4,58.2,58.9,58.2h116.2
		c32.5,0,58.9-26.1,58.9-58.2V194.2C373,162.1,346.6,136,314.1,136z M256,334.9c-43.6,0-78.9-35.3-78.9-78.9s35.3-78.9,78.9-78.9
		c43.6,0,78.9,35.3,78.9,78.9C334.9,299.6,299.6,334.9,256,334.9z M334.7,193.6c-9.9,0-17.9-7.7-17.9-17.2s8-17.2,17.9-17.2
		c9.9,0,17.9,7.7,17.9,17.2S344.6,193.6,334.7,193.6z"/>
	<path class="st0" d="M256,204.7c-28.3,0-51.3,23-51.3,51.3c0,28.3,22.9,51.3,51.3,51.3c28.4,0,51.3-23,51.3-51.3
		C307.3,227.7,284.3,204.7,256,204.7z"/>
	<path class="st0" d="M256,17.3L49.3,136.7v238.6L256,494.7l206.7-119.4V136.7L256,17.3z M399.2,317.8c0,47.1-38.2,85.4-85.1,85.4
		H197.9c-46.9,0-85.1-38.3-85.1-85.4V194.2c0-47.1,38.2-85.4,85.1-85.4h116.2c46.9,0,85.1,38.3,85.1,85.4V317.8z"/>
</g>
</svg>
