<?xml version="1.0" encoding="utf-8"?>
<!-- Generator: Adobe Illustrator 21.1.0, SVG Export Plug-In . SVG Version: 6.00 Build 0)  -->
<svg version="1.1" id="Layer_1" xmlns="http://www.w3.org/2000/svg" xmlns:xlink="http://www.w3.org/1999/xlink" x="0px" y="0px"
	 viewBox="0 0 186.7 152.9" style="enable-background:new 0 0 186.7 152.9;" xml:space="preserve">
<style type="text/css">
	.st0{fill:url(#SVGID_1_);}
	.st1{fill:url(#SVGID_2_);}
	.st2{fill:url(#SVGID_3_);}
	.st3{fill:url(#SVGID_4_);}
	.st4{fill:url(#SVGID_5_);}
	.st5{fill:url(#SVGID_6_);}
	.st6{fill:url(#SVGID_7_);}
	.st7{fill:url(#SVGID_8_);}
	.st8{fill:url(#SVGID_9_);}
	.st9{fill:url(#SVGID_10_);}
	.st10{fill:url(#SVGID_11_);}
	.st11{fill:url(#SVGID_12_);}
	.st12{fill:url(#SVGID_13_);}
	.st13{fill:url(#SVGID_14_);}
</style>
<title>Artboard 1</title>
<linearGradient id="SVGID_1_" gradientUnits="userSpaceOnUse" x1="-2.4" y1="94.155" x2="188.64" y2="94.155" gradientTransform="matrix(1 0 0 -1 0 154.94)">
	<stop  offset="0" style="stop-color:#F4BABA"/>
	<stop  offset="0.16" style="stop-color:#FDE7CE"/>
	<stop  offset="0.32" style="stop-color:#F9F1B7"/>
	<stop  offset="0.51" style="stop-color:#CCE2BC"/>
	<stop  offset="0.67" style="stop-color:#CDE9EF"/>
	<stop  offset="0.84" style="stop-color:#D9D8ED"/>
	<stop  offset="1" style="stop-color:#ECD1E7"/>
</linearGradient>
<path class="st0" d="M120.4,15.6L93.3,0l-8.1,4.7l-15.7,9.1L40.7,30.4v60.8L52.6,98l18.8,10.8l22,12.7l29.4-17l9-5.2l14.2-8.2V30.4
	L120.4,15.6z M140.6,45.4v42.7l-15.8,9.1l-9.9,5.7l-21.6,12.5l-14.5-8.4l-12.4-7.2L46.1,88.1V33.5l20.6-11.9L91.8,7.2l1.5-0.9
	l26.3,15.2l20.9,12.1L140.6,45.4L140.6,45.4z"/>
<linearGradient id="SVGID_2_" gradientUnits="userSpaceOnUse" x1="-2.4" y1="94.235" x2="188.64" y2="94.235" gradientTransform="matrix(1 0 0 -1 0 154.94)">
	<stop  offset="0" style="stop-color:#F4BABA"/>
	<stop  offset="0.16" style="stop-color:#FDE7CE"/>
	<stop  offset="0.32" style="stop-color:#F9F1B7"/>
	<stop  offset="0.51" style="stop-color:#CCE2BC"/>
	<stop  offset="0.67" style="stop-color:#CDE9EF"/>
	<stop  offset="0.84" style="stop-color:#D9D8ED"/>
	<stop  offset="1" style="stop-color:#ECD1E7"/>
</linearGradient>
<path class="st1" d="M113.9,30.4V46c-6.8-2.1-14.3-1-20.2,3.1v8.6h-7.5c-1.3,2.5-2.1,5.3-2.3,8.1v4.5c0.1,0.8,0.2,1.7,0.4,2.5
	c0,0.1,0.1,0.1,0.2,0.2l0.1,0.1c0.1,0.1,0.1,0.1,0.2,0.2l0.1,0.1c0.1,0,0.1,0.1,0.2,0.1h0.1c0.1,0,0.2,0.1,0.3,0.1h0.1h0.3h0.6
	L99.9,87l-1.2,0.9c-0.5,0.4-0.9,0.7-1.4,1l0,0c5.2,2.4,11.1,2.7,16.5,1V91h15.4l0.8-0.4V30.4H113.9z M115.1,68.7c0,0.1,0,0.3,0,0.4
	v0.1c0,0.2,0,0.3-0.1,0.5v0.1c0,0.2-0.1,0.3-0.1,0.5l0,0c-0.1,0.3-0.2,0.7-0.4,1l0,0c-1.9,4.1-6.8,5.9-10.9,4.1s-5.9-6.8-4.1-10.9
	c1.9-4.1,6.8-5.9,10.9-4.1c1.8,0.8,3.2,2.3,4.1,4.1l0,0c0.1,0.3,0.3,0.7,0.4,1l0,0c0,0.2,0.1,0.3,0.1,0.5v0.1c0,0.2,0.1,0.3,0.1,0.5
	v0.1c0,0.1,0,0.3,0,0.4v0.4c0,0.2,0,0.4,0,0.6c0,0.2,0,0.4,0,0.6V68.7z"/>
<linearGradient id="SVGID_3_" gradientUnits="userSpaceOnUse" x1="-2.4" y1="94.155" x2="188.64" y2="94.155" gradientTransform="matrix(1 0 0 -1 0 154.94)">
	<stop  offset="0" style="stop-color:#F4BABA"/>
	<stop  offset="0.16" style="stop-color:#FDE7CE"/>
	<stop  offset="0.32" style="stop-color:#F9F1B7"/>
	<stop  offset="0.51" style="stop-color:#CCE2BC"/>
	<stop  offset="0.67" style="stop-color:#CDE9EF"/>
	<stop  offset="0.84" style="stop-color:#D9D8ED"/>
	<stop  offset="1" style="stop-color:#ECD1E7"/>
</linearGradient>
<path class="st2" d="M86,91.2c4.4,0,8.6-1.5,12-4.2l-12-12.1c-1.8,0-3.3-1.5-3.3-3.3V56.4h9.8V40.2h-9.8v-9.8H66.4v9.8h-9.8v16.2
	h9.8v15.2C66.4,82.4,75.2,91.2,86,91.2z"/>
<linearGradient id="SVGID_4_" gradientUnits="userSpaceOnUse" x1="-2.4" y1="10.2249" x2="188.64" y2="10.2249" gradientTransform="matrix(1 0 0 -1 0 154.94)">
	<stop  offset="0" style="stop-color:#F4BABA"/>
	<stop  offset="0.16" style="stop-color:#FDE7CE"/>
	<stop  offset="0.32" style="stop-color:#F9F1B7"/>
	<stop  offset="0.51" style="stop-color:#CCE2BC"/>
	<stop  offset="0.67" style="stop-color:#CDE9EF"/>
	<stop  offset="0.84" style="stop-color:#D9D8ED"/>
	<stop  offset="1" style="stop-color:#ECD1E7"/>
</linearGradient>
<path class="st3" d="M9.8,139.5c0,0.2-0.3,0.4-0.5,0.4H6.6v12.4c0,0.2-0.3,0.4-0.5,0.4H3.6c-0.2,0-0.4-0.2-0.5-0.4v-12.3H0.5
	c-0.2,0-0.4-0.2-0.5-0.4v-2.3c0-0.2,0.2-0.4,0.5-0.4h8.8c0.2,0,0.5,0.2,0.5,0.4V139.5z"/>
<linearGradient id="SVGID_5_" gradientUnits="userSpaceOnUse" x1="-2.4" y1="10.2245" x2="188.64" y2="10.2245" gradientTransform="matrix(1 0 0 -1 0 154.94)">
	<stop  offset="0" style="stop-color:#F4BABA"/>
	<stop  offset="0.16" style="stop-color:#FDE7CE"/>
	<stop  offset="0.32" style="stop-color:#F9F1B7"/>
	<stop  offset="0.51" style="stop-color:#CCE2BC"/>
	<stop  offset="0.67" style="stop-color:#CDE9EF"/>
	<stop  offset="0.84" style="stop-color:#D9D8ED"/>
	<stop  offset="1" style="stop-color:#ECD1E7"/>
</linearGradient>
<path class="st4" d="M28.6,136.8c0.4,0,0.6,0.4,0.4,0.6l0,0l-5.5,7.8v7c0,0.2-0.2,0.4-0.5,0.4h-2.5c-0.2,0-0.4-0.2-0.5-0.4v-7
	c-1-1.4-2-2.8-3-4.3c-0.8-1.1-1.7-2.4-2.5-3.5l0,0c-0.2-0.3,0-0.6,0.4-0.6h3c0.1,0,0.3,0.1,0.4,0.2c1.2,1.7,2.2,3.1,3.5,4.8l3.4-4.8
	c0.1-0.1,0.2-0.1,0.4-0.2L28.6,136.8z"/>
<linearGradient id="SVGID_6_" gradientUnits="userSpaceOnUse" x1="-2.4" y1="10.2192" x2="188.64" y2="10.2192" gradientTransform="matrix(1 0 0 -1 0 154.94)">
	<stop  offset="0" style="stop-color:#F4BABA"/>
	<stop  offset="0.16" style="stop-color:#FDE7CE"/>
	<stop  offset="0.32" style="stop-color:#F9F1B7"/>
	<stop  offset="0.51" style="stop-color:#CCE2BC"/>
	<stop  offset="0.67" style="stop-color:#CDE9EF"/>
	<stop  offset="0.84" style="stop-color:#D9D8ED"/>
	<stop  offset="1" style="stop-color:#ECD1E7"/>
</linearGradient>
<path class="st5" d="M43.7,152.2c0,0.2-0.3,0.4-0.5,0.4h-8.7c-0.4,0-0.5-0.3-0.4-0.5l4.8-12h-4.4c-0.2,0-0.4-0.2-0.5-0.4v-2.5
	c0-0.2,0.2-0.4,0.5-0.4h8.7c0.4,0,0.6,0.3,0.5,0.5c-1.6,4-3.2,8-4.8,12h4.4c0.2,0,0.5,0.2,0.5,0.4L43.7,152.2L43.7,152.2z"/>
<linearGradient id="SVGID_7_" gradientUnits="userSpaceOnUse" x1="-2.4" y1="10.45" x2="188.64" y2="10.45" gradientTransform="matrix(1 0 0 -1 0 154.94)">
	<stop  offset="0" style="stop-color:#F4BABA"/>
	<stop  offset="0.16" style="stop-color:#FDE7CE"/>
	<stop  offset="0.32" style="stop-color:#F9F1B7"/>
	<stop  offset="0.51" style="stop-color:#CCE2BC"/>
	<stop  offset="0.67" style="stop-color:#CDE9EF"/>
	<stop  offset="0.84" style="stop-color:#D9D8ED"/>
	<stop  offset="1" style="stop-color:#ECD1E7"/>
</linearGradient>
<path class="st6" d="M49.1,152.6c-0.4,0-0.6-0.3-0.5-0.5c2-5,4-10.5,6-15.5c0.1-0.2,0.5-0.3,0.7-0.2c0.1,0,0.1,0.1,0.2,0.2l6,15.5
	c0.1,0.2,0,0.4-0.2,0.5c-0.1,0-0.1,0-0.2,0H49.1z M55.1,144.3l-1.9,5.4H57L55.1,144.3z"/>
<linearGradient id="SVGID_8_" gradientUnits="userSpaceOnUse" x1="-2.4" y1="10.2197" x2="188.64" y2="10.2197" gradientTransform="matrix(1 0 0 -1 0 154.94)">
	<stop  offset="0" style="stop-color:#F4BABA"/>
	<stop  offset="0.16" style="stop-color:#FDE7CE"/>
	<stop  offset="0.32" style="stop-color:#F9F1B7"/>
	<stop  offset="0.51" style="stop-color:#CCE2BC"/>
	<stop  offset="0.67" style="stop-color:#CDE9EF"/>
	<stop  offset="0.84" style="stop-color:#D9D8ED"/>
	<stop  offset="1" style="stop-color:#ECD1E7"/>
</linearGradient>
<path class="st7" d="M70.3,136.8c3.9,0,9.3,0.9,9.3,7.9c0,6.8-5.4,7.9-9.3,7.9h-2.5c-0.2,0-0.4-0.2-0.5-0.4v-15
	c0-0.2,0.2-0.4,0.5-0.4L70.3,136.8L70.3,136.8z M70.8,149.3c1.8,0.1,5.3-0.2,5.3-4.6c0-3.3-2.3-4.6-5.3-4.6V149.3z"/>
<linearGradient id="SVGID_9_" gradientUnits="userSpaceOnUse" x1="-2.4" y1="10.215" x2="188.64" y2="10.215" gradientTransform="matrix(1 0 0 -1 0 154.94)">
	<stop  offset="0" style="stop-color:#F4BABA"/>
	<stop  offset="0.16" style="stop-color:#FDE7CE"/>
	<stop  offset="0.32" style="stop-color:#F9F1B7"/>
	<stop  offset="0.51" style="stop-color:#CCE2BC"/>
	<stop  offset="0.67" style="stop-color:#CDE9EF"/>
	<stop  offset="0.84" style="stop-color:#D9D8ED"/>
	<stop  offset="1" style="stop-color:#ECD1E7"/>
</linearGradient>
<path class="st8" d="M97.3,139.7c0,0.2-0.2,0.4-0.5,0.4h-10c-0.2,0-0.4-0.2-0.5-0.4v-2.5c0-0.2,0.2-0.4,0.5-0.4h10
	c0.2,0,0.4,0.2,0.5,0.4L97.3,139.7z M97.3,146c0,0.2-0.2,0.4-0.5,0.4h-10c-0.2,0-0.4-0.2-0.5-0.4v-2.5c0-0.2,0.2-0.4,0.5-0.4h10
	c0.2,0,0.4,0.2,0.5,0.4L97.3,146z M86.8,152.6c-0.2,0-0.4-0.2-0.5-0.4v-2.5c0-0.2,0.2-0.4,0.5-0.4h10c0.2,0,0.4,0.2,0.5,0.4v2.5
	c0,0.2-0.2,0.4-0.5,0.4H86.8z"/>
<linearGradient id="SVGID_10_" gradientUnits="userSpaceOnUse" x1="-2.4" y1="10.2392" x2="188.64" y2="10.2392" gradientTransform="matrix(1 0 0 -1 0 154.94)">
	<stop  offset="0" style="stop-color:#F4BABA"/>
	<stop  offset="0.16" style="stop-color:#FDE7CE"/>
	<stop  offset="0.32" style="stop-color:#F9F1B7"/>
	<stop  offset="0.51" style="stop-color:#CCE2BC"/>
	<stop  offset="0.67" style="stop-color:#CDE9EF"/>
	<stop  offset="0.84" style="stop-color:#D9D8ED"/>
	<stop  offset="1" style="stop-color:#ECD1E7"/>
</linearGradient>
<path class="st9" d="M103.9,148.1c0-0.2,0.2-0.4,0.5-0.4h2.5c0.2,0,0.4,0.2,0.5,0.4c0.1,0.9,0.8,1.5,1.7,1.5c0,0,0,0,0,0
	c0.9,0.1,1.6-0.6,1.7-1.5c0,0,0,0,0-0.1c-0.1-0.9-0.8-1.6-1.7-1.7c-0.9,0-1.7-0.2-2.5-0.5c-1.7-0.7-2.8-2.4-2.7-4.2c0-2.8,2.2-5,5-5
	c0.1,0,0.1,0,0.2,0c2.7-0.2,5,1.9,5.1,4.6c0,0.1,0,0.1,0,0.2c0,0.2-0.3,0.4-0.5,0.4h-2.5c-0.2,0-0.5-0.2-0.5-0.4
	c0-0.8-0.7-1.5-1.6-1.4c0,0-0.1,0-0.1,0c-0.9-0.1-1.6,0.6-1.7,1.5c0,0.1,0,0.1,0,0.2c0,0.9,0.7,1.5,1.6,1.5c0,0,0.1,0,0.1,0
	c0.8,0,1.7,0.2,2.4,0.5c1.7,0.8,2.8,2.5,2.7,4.4c0,2.7-2.2,4.9-4.9,4.8c-0.1,0-0.2,0-0.3,0C106.2,152.8,104,151.1,103.9,148.1z"/>
<linearGradient id="SVGID_11_" gradientUnits="userSpaceOnUse" x1="-2.4" y1="10.2257" x2="188.64" y2="10.2257" gradientTransform="matrix(1 0 0 -1 0 154.94)">
	<stop  offset="0" style="stop-color:#F4BABA"/>
	<stop  offset="0.16" style="stop-color:#FDE7CE"/>
	<stop  offset="0.32" style="stop-color:#F9F1B7"/>
	<stop  offset="0.51" style="stop-color:#CCE2BC"/>
	<stop  offset="0.67" style="stop-color:#CDE9EF"/>
	<stop  offset="0.84" style="stop-color:#D9D8ED"/>
	<stop  offset="1" style="stop-color:#ECD1E7"/>
</linearGradient>
<path class="st10" d="M125.4,139.9v9.7h1.3c0.2,0,0.4,0.2,0.5,0.4v2.3c0,0.2-0.2,0.4-0.5,0.4h-6.1c-0.2,0-0.4-0.2-0.5-0.4v-2.3
	c0-0.2,0.2-0.4,0.5-0.4h1.3v-9.7h-1.2c-0.2,0-0.4-0.2-0.5-0.4v-2.3c0-0.2,0.2-0.4,0.5-0.4h5.9c0.2,0,0.4,0.2,0.5,0.4c0,0,0,0,0,0
	v2.3c0,0.2-0.2,0.4-0.5,0.4L125.4,139.9z"/>
<linearGradient id="SVGID_12_" gradientUnits="userSpaceOnUse" x1="-2.4" y1="10.2168" x2="188.64" y2="10.2168" gradientTransform="matrix(1 0 0 -1 0 154.94)">
	<stop  offset="0" style="stop-color:#F4BABA"/>
	<stop  offset="0.16" style="stop-color:#FDE7CE"/>
	<stop  offset="0.32" style="stop-color:#F9F1B7"/>
	<stop  offset="0.51" style="stop-color:#CCE2BC"/>
	<stop  offset="0.67" style="stop-color:#CDE9EF"/>
	<stop  offset="0.84" style="stop-color:#D9D8ED"/>
	<stop  offset="1" style="stop-color:#ECD1E7"/>
</linearGradient>
<path class="st11" d="M147.5,143.3c0.2,0,0.4,0.2,0.5,0.4v8.6c0,0.2-0.2,0.4-0.5,0.4c0,0,0,0,0,0h-2.2c-0.2,0-0.5-0.2-0.5-0.4
	c0-0.3,0-0.5,0-0.8c-1.1,0.9-2.5,1.4-3.9,1.4c-4.3,0-7.7-3-7.7-8.1c-0.1-4.4,3.5-8.1,7.9-8.1c0,0,0.1,0,0.1,0c2.1,0,4.1,0.9,5.6,2.3
	c0.1,0.2,0.1,0.4,0,0.6l-1.8,1.7c-0.2,0.2-0.4,0.2-0.6,0c-0.9-0.9-2-1.4-3.2-1.4c-2.5,0-4.5,1.9-4.5,4.4c0,0.1,0,0.3,0,0.4
	c0,3.4,2,4.8,4.5,4.8c1.2,0,2.4-0.5,3.3-1.5v-1.7h-2.2c-0.3,0-0.5-0.2-0.5-0.4v-2.3c0-0.2,0.3-0.4,0.5-0.4L147.5,143.3L147.5,143.3z
	"/>
<linearGradient id="SVGID_13_" gradientUnits="userSpaceOnUse" x1="-2.4" y1="10.2054" x2="188.64" y2="10.2054" gradientTransform="matrix(1 0 0 -1 0 154.94)">
	<stop  offset="0" style="stop-color:#F4BABA"/>
	<stop  offset="0.16" style="stop-color:#FDE7CE"/>
	<stop  offset="0.32" style="stop-color:#F9F1B7"/>
	<stop  offset="0.51" style="stop-color:#CCE2BC"/>
	<stop  offset="0.67" style="stop-color:#CDE9EF"/>
	<stop  offset="0.84" style="stop-color:#D9D8ED"/>
	<stop  offset="1" style="stop-color:#ECD1E7"/>
</linearGradient>
<path class="st12" d="M169.2,152.2c0,0.2-0.2,0.4-0.5,0.4h-2.5c-0.1,0-0.3-0.1-0.4-0.2l-6.6-9.4v9.2c0,0.2-0.2,0.4-0.5,0.4h-2.5
	c-0.2,0-0.4-0.2-0.5-0.4v-15c0-0.2,0.2-0.4,0.5-0.4h2.6c0.1,0,0.3,0.1,0.4,0.2c2.2,3.2,4.3,6.1,6.6,9.4v-9.2c0-0.2,0.2-0.4,0.5-0.4
	h2.5c0.2,0,0.4,0.2,0.5,0.4c0,0,0,0,0,0L169.2,152.2L169.2,152.2z"/>
<linearGradient id="SVGID_14_" gradientUnits="userSpaceOnUse" x1="-2.4" y1="10.2392" x2="188.64" y2="10.2392" gradientTransform="matrix(1 0 0 -1 0 154.94)">
	<stop  offset="0" style="stop-color:#F4BABA"/>
	<stop  offset="0.16" style="stop-color:#FDE7CE"/>
	<stop  offset="0.32" style="stop-color:#F9F1B7"/>
	<stop  offset="0.51" style="stop-color:#CCE2BC"/>
	<stop  offset="0.67" style="stop-color:#CDE9EF"/>
	<stop  offset="0.84" style="stop-color:#D9D8ED"/>
	<stop  offset="1" style="stop-color:#ECD1E7"/>
</linearGradient>
<path class="st13" d="M176.4,148.1c0-0.2,0.2-0.4,0.5-0.4h2.5c0.2,0,0.4,0.2,0.5,0.4c0.1,0.9,0.8,1.5,1.7,1.5c0,0,0,0,0,0
	c0.9,0.1,1.6-0.6,1.7-1.5c0,0,0,0,0-0.1c-0.1-0.9-0.8-1.6-1.7-1.7c-0.9,0-1.7-0.2-2.5-0.5c-1.7-0.7-2.8-2.4-2.7-4.2c0-2.8,2.2-5,5-5
	c0.1,0,0.1,0,0.2,0c2.7-0.2,5,1.9,5.1,4.6c0,0.1,0,0.1,0,0.2c0,0.2-0.3,0.4-0.5,0.4h-2.5c-0.2,0-0.5-0.2-0.5-0.4
	c0-0.8-0.7-1.5-1.6-1.4c0,0-0.1,0-0.1,0c-0.9-0.1-1.6,0.6-1.7,1.5c0,0.1,0,0.1,0,0.2c0,0.9,0.7,1.5,1.6,1.5c0,0,0.1,0,0.1,0
	c0.8,0,1.7,0.2,2.4,0.5c1.7,0.8,2.8,2.5,2.7,4.4c0,2.7-2.2,4.9-4.9,4.8c-0.1,0-0.2,0-0.3,0C178.7,152.8,176.4,151.1,176.4,148.1z"/>
</svg>
