<svg id="Layer_1" data-name="Layer 1" xmlns="http://www.w3.org/2000/svg" xmlns:xlink="http://www.w3.org/1999/xlink" viewBox="0 0 255.12 155.91"><defs><style>.cls-1{fill:url(#linear-gradient);}.cls-2{fill:url(#linear-gradient-4);}.cls-3{fill:url(#linear-gradient-5);}.cls-4{fill:url(#linear-gradient-6);}.cls-5{fill:url(#linear-gradient-7);}.cls-6{fill:url(#linear-gradient-11);}.cls-7{fill:url(#linear-gradient-12);}</style><linearGradient id="linear-gradient" x1="31.82" y1="62.32" x2="222.86" y2="62.32" gradientUnits="userSpaceOnUse"><stop offset="0" stop-color="#f4baba"/><stop offset="0.16" stop-color="#fde7ce"/><stop offset="0.32" stop-color="#f9f1b7"/><stop offset="0.51" stop-color="#cce2bc"/><stop offset="0.67" stop-color="#cde9ef"/><stop offset="0.84" stop-color="#d9d8ed"/><stop offset="1" stop-color="#ecd1e7"/></linearGradient><linearGradient id="linear-gradient-4" x1="31.82" y1="146.26" x2="222.86" y2="146.26" xlink:href="#linear-gradient"/><linearGradient id="linear-gradient-5" x1="31.82" y1="146.25" x2="222.86" y2="146.25" xlink:href="#linear-gradient"/><linearGradient id="linear-gradient-6" x1="31.82" y1="146.25" x2="222.86" y2="146.25" xlink:href="#linear-gradient"/><linearGradient id="linear-gradient-7" x1="31.82" y1="146.02" x2="222.86" y2="146.02" xlink:href="#linear-gradient"/><linearGradient id="linear-gradient-11" x1="31.82" y1="146.24" x2="222.86" y2="146.24" xlink:href="#linear-gradient"/><linearGradient id="linear-gradient-12" x1="31.82" y1="146.23" x2="222.86" y2="146.23" xlink:href="#linear-gradient"/></defs><title>Artboard 1</title><path class="cls-1" d="M154.63,17.15,127.56,1.53l-8.12,4.68L103.72,15.3,74.92,31.92V92.71l11.9,6.86,18.76,10.83,22,12.7,29.37-17,9-5.22,14.25-8.22V31.92Zm20.16,29.78V89.58L159,98.69l-9.85,5.68-21.61,12.49L113,108.45l-12.4-7.15L80.33,89.58V35.06l20.59-11.9L126,8.68l1.54-.9,26.29,15.17,20.94,12.11V46.93Z"/><path class="cls-1" d="M148.1,31.92V47.5a23.21,23.21,0,0,0-20.16,3.09v8.62h-7.5a22.52,22.52,0,0,0-2.33,8.1v4.46c.09.85.21,1.69.38,2.52a1.3,1.3,0,0,0,.17.21l.09.09a.64.64,0,0,0,.19.17l.12.07a1,1,0,0,0,.21.12l.09,0a1.34,1.34,0,0,0,.28.09l.12,0,.31,0h.57l13.51,13.51-1.16.93c-.47.36-.95.71-1.42,1l0,0a23.23,23.23,0,0,0,16.53,1v1.07h15.41l.81-.45V31.92Zm1.23,38.35a2.91,2.91,0,0,1,0,.45v.07a4,4,0,0,1-.09.52l0,.09a3.47,3.47,0,0,1-.12.47l0,0a7.82,7.82,0,0,1-.38,1v0a8.22,8.22,0,1,1,0-6.84v0a7.82,7.82,0,0,1,.38,1l0,0c0,.17.07.31.12.47l0,.09c0,.17.07.33.09.52v.07a2.91,2.91,0,0,1,0,.45V69a4.2,4.2,0,0,1,0,.55c0,.19,0,.36,0,.55Z"/><path class="cls-1" d="M120.2,92.71a19.38,19.38,0,0,0,12-4.16L120.15,76.47a3.33,3.33,0,0,1-3.32-3.32V57.92h9.81V41.73h-9.81V31.92H100.63v9.81H90.83V57.92h9.81V73.14A19.57,19.57,0,0,0,120.2,92.71Z"/><path class="cls-2" d="M44,141a.46.46,0,0,1-.5.39H40.82v12.36a.46.46,0,0,1-.5.39H37.84a.45.45,0,0,1-.47-.39V141.42H34.69a.45.45,0,0,1-.47-.39v-2.28a.45.45,0,0,1,.47-.4h8.81a.46.46,0,0,1,.5.4Z"/><path class="cls-3" d="M62.77,138.34c.4,0,.61.36.36.63h0l-5.55,7.79v7a.44.44,0,0,1-.47.39H54.62a.45.45,0,0,1-.47-.39v-7c-1-1.43-2.05-2.84-3.05-4.27-.81-1.13-1.7-2.4-2.51-3.52h0c-.24-.27,0-.63.36-.63H52a.55.55,0,0,1,.4.16c1.17,1.67,2.25,3.11,3.45,4.79l3.44-4.79a.74.74,0,0,1,.39-.16Z"/><path class="cls-4" d="M77.94,153.77a.46.46,0,0,1-.5.39H68.71c-.39,0-.54-.27-.43-.54l4.79-12H68.69a.45.45,0,0,1-.47-.4v-2.48a.45.45,0,0,1,.47-.4h8.73c.39,0,.57.27.46.54-1.58,4-3.23,8-4.81,12h4.38a.46.46,0,0,1,.5.4v2.5Z"/><path class="cls-5" d="M83.28,154.15c-.4,0-.57-.27-.46-.54,2-5,4-10.46,6-15.47a.51.51,0,0,1,.88,0l6,15.47a.39.39,0,0,1-.4.54Zm6-8.36-1.94,5.39h3.88Z"/><path class="cls-3" d="M104.51,138.34c3.87,0,9.28.88,9.28,7.91,0,6.75-5.35,7.91-9.28,7.91H102a.45.45,0,0,1-.47-.39v-15a.45.45,0,0,1,.47-.4h2.51Zm.5,12.49c1.83.07,5.28-.23,5.28-4.58,0-3.34-2.28-4.62-5.28-4.58Z"/><path class="cls-4" d="M131.48,141.24a.44.44,0,0,1-.46.4H121a.45.45,0,0,1-.47-.4v-2.48a.45.45,0,0,1,.47-.4h10a.45.45,0,0,1,.46.4Zm0,6.25a.44.44,0,0,1-.46.4H121a.45.45,0,0,1-.47-.4V145a.45.45,0,0,1,.47-.4h10a.45.45,0,0,1,.46.4ZM121,154.15a.45.45,0,0,1-.47-.39v-2.51a.45.45,0,0,1,.47-.4h10a.45.45,0,0,1,.46.4v2.51a.44.44,0,0,1-.46.39Z"/><path class="cls-3" d="M138.15,149.61a.45.45,0,0,1,.47-.4h2.51a.47.47,0,0,1,.47.4,1.57,1.57,0,0,0,1.71,1.47,1.6,1.6,0,0,0,1.71-1.54,1.82,1.82,0,0,0-1.71-1.7,6.33,6.33,0,0,1-2.47-.54,4.44,4.44,0,0,1-2.71-4.2,5,5,0,0,1,5.17-5,4.84,4.84,0,0,1,5.12,4.72.48.48,0,0,1-.5.39h-2.47c-.24,0-.5-.23-.5-.39a1.51,1.51,0,0,0-1.67-1.43,1.6,1.6,0,0,0-1.71,1.7,1.56,1.56,0,0,0,1.71,1.51,6.14,6.14,0,0,1,2.44.54,4.61,4.61,0,0,1,2.74,4.38,4.86,4.86,0,0,1-5.17,4.84C140.45,154.31,138.18,152.64,138.15,149.61Z"/><path class="cls-6" d="M159.63,141.41v9.66h1.28a.45.45,0,0,1,.47.39v2.3a.45.45,0,0,1-.47.39h-6.05a.45.45,0,0,1-.47-.39v-2.3a.45.45,0,0,1,.47-.39h1.31v-9.66H155a.45.45,0,0,1-.47-.39v-2.28a.45.45,0,0,1,.47-.4h5.87a.43.43,0,0,1,.47.4V141a.44.44,0,0,1-.47.39Z"/><path class="cls-7" d="M181.75,144.82a.43.43,0,0,1,.46.39v8.61a.43.43,0,0,1-.46.4h-2.2c-.24,0-.5-.16-.5-.39a7.57,7.57,0,0,1,0-.81,5.47,5.47,0,0,1-3.88,1.36c-4.3,0-7.66-3-7.66-8.13a8,8,0,0,1,8-8.13,8.2,8.2,0,0,1,5.65,2.33.52.52,0,0,1,0,.61l-1.76,1.74a.46.46,0,0,1-.61,0,4.56,4.56,0,0,0-3.23-1.36,4.47,4.47,0,0,0-4.52,4.84c0,3.38,2,4.84,4.52,4.84a4.51,4.51,0,0,0,3.27-1.47v-1.7h-2.21c-.3,0-.5-.16-.5-.39v-2.33a.46.46,0,0,1,.5-.39h5.22Z"/><path class="cls-4" d="M203.38,153.77a.44.44,0,0,1-.47.39h-2.53A.56.56,0,0,1,200,154l-6.59-9.45v9.22a.45.45,0,0,1-.47.39h-2.53a.45.45,0,0,1-.47-.39v-15a.45.45,0,0,1,.47-.4H193a.56.56,0,0,1,.39.16c2.25,3.25,4.34,6.14,6.62,9.42v-9.18a.44.44,0,0,1,.47-.4h2.48a.43.43,0,0,1,.47.4v15Z"/><path class="cls-3" d="M210.59,149.61a.45.45,0,0,1,.47-.4h2.51a.47.47,0,0,1,.47.4,1.57,1.57,0,0,0,1.71,1.47,1.6,1.6,0,0,0,1.71-1.54,1.82,1.82,0,0,0-1.71-1.7,6.33,6.33,0,0,1-2.47-.54,4.44,4.44,0,0,1-2.71-4.2,5,5,0,0,1,5.17-5,4.84,4.84,0,0,1,5.12,4.72.48.48,0,0,1-.5.39h-2.47c-.24,0-.5-.23-.5-.39a1.51,1.51,0,0,0-1.67-1.43,1.6,1.6,0,0,0-1.71,1.7,1.56,1.56,0,0,0,1.71,1.51,6.14,6.14,0,0,1,2.44.54,4.61,4.61,0,0,1,2.74,4.38,4.86,4.86,0,0,1-5.17,4.84C212.9,154.31,210.66,152.64,210.59,149.61Z"/></svg>