<?xml version="1.0" encoding="utf-8"?>
<!-- Generator: Adobe Illustrator 19.1.0, SVG Export Plug-In . SVG Version: 6.00 Build 0)  -->
<svg version="1.1" id="Layer_1" xmlns="http://www.w3.org/2000/svg" xmlns:xlink="http://www.w3.org/1999/xlink" x="0px" y="0px"
	 viewBox="0 0 1283.3 313.5" style="enable-background:new 0 0 1283.3 313.5;" xml:space="preserve">
<style type="text/css">
	.st0{fill:#FFFFFF;}
</style>
<g>
	<g>
		<g>
			<path class="st0" d="M366.6,92.8v167.7h-25.5V92.8h-24.5V69.6h74.4v23.1H366.6z"/>
			<path class="st0" d="M453.2,260.5h-25.5v-70.2L396.4,69.6h25.2l19.1,82.9h0.8l17.3-82.9h25.2l-30.8,120.7V260.5z"/>
			<path class="st0" d="M518.9,237.3h43.1v23.1h-70.7l-1.9-9L529.5,93h-35.9V69.6h57.7l5.3,10.9L518.9,237.3z"/>
			<path class="st0" d="M600.7,260.5h-25.5V102.3c0-21.8,10.2-32.7,30.6-32.7h19.1c20.4,0,30.6,10.9,30.6,32.7v158.1H630v-69.9
				h-29.2V260.5z M630,167.4v-63.5c0-7.4-3.7-11.2-11.2-11.2h-6.9c-7.4,0-11.2,3.7-11.2,11.2v63.5H630z"/>
			<path class="st0" d="M678.1,260.5V69.6h44.4c23.9,0,35.9,12.2,35.9,36.7v126.5c0,18.4-10.2,27.6-30.6,27.6H678.1z M703.6,237.3
				h19.1c6.7,0,10.1-2.8,10.1-8.5V106.6c0-9.2-3.8-13.8-11.4-13.8h-17.8V237.3z"/>
			<path class="st0" d="M780.9,260.5V69.6h63.3v23.1h-37.7v57.9h33.5v23.1h-33.5v63.5h37.7v23.1H780.9z"/>
			<path class="st0" d="M911.4,120.9v-16.7c0-7.6-3.7-11.4-11.2-11.4h-4c-7.3,0-10.9,3.8-10.9,11.4v31.6c0,3.5,0.7,5.9,2.1,7.2
				c1.4,1.2,3.7,2.8,6.9,4.8l24.2,13c5.3,3,9.1,5.4,11.3,7c2.2,1.7,3.9,3.7,5.2,6.1c1.2,2.4,1.9,7,1.9,13.7v40.7
				c0,21.4-10.3,32.2-30.8,32.2h-15.7c-20.4,0-30.6-11.7-30.6-35.1v-9.6h25.5v10.4c0,7.4,3.8,11.2,11.4,11.2h4.5
				c6.7,0,10.1-3.7,10.1-11.2v-32.4c0-3.5-0.7-5.9-2.1-7.2c-1.4-1.2-3.7-2.8-6.9-4.8l-24.2-13.6c-5.3-2.8-9.2-5.2-11.6-7.2
				c-2.4-1.9-4.1-4.5-5.2-7.6c-1.1-3.1-1.6-7.1-1.6-12.1v-39.1c0-21.8,10.2-32.7,30.6-32.7h15.9c20.4,0,30.6,10.9,30.6,32.7v18.6
				H911.4z"/>
			<path class="st0" d="M958.2,260.5V69.6h25.5v190.8H958.2z"/>
			<path class="st0" d="M1046.9,190.6v-23.1h38.8v93h-50c-19.7,0-29.5-10.7-29.5-32.2v-126c0-21.8,9.8-32.7,29.5-32.7h17.5
				c21.6,0,32.4,11.1,32.4,33.2v20.7h-25.5v-17c0-9.2-3.6-13.8-10.9-13.8h-6.4c-7.4,0-11.2,4.6-11.2,13.8v116.9
				c0,9.2,3.7,13.8,11.2,13.8h17.3v-46.8H1046.9z"/>
			<path class="st0" d="M1159.4,161.9V69.6h25.5v190.8h-25.5v-38l-27.4-86.9v124.9h-25.5V69.6h25.5L1159.4,161.9z"/>
			<path class="st0" d="M1257.7,120.9v-16.7c0-7.6-3.7-11.4-11.2-11.4h-4c-7.3,0-10.9,3.8-10.9,11.4v31.6c0,3.5,0.7,5.9,2.1,7.2
				c1.4,1.2,3.7,2.8,6.9,4.8l24.2,13c5.3,3,9.1,5.4,11.3,7c2.2,1.7,3.9,3.7,5.2,6.1c1.2,2.4,1.9,7,1.9,13.7v40.7
				c0,21.4-10.3,32.2-30.8,32.2h-15.7c-20.4,0-30.6-11.7-30.6-35.1v-9.6h25.5v10.4c0,7.4,3.8,11.2,11.4,11.2h4.5
				c6.7,0,10.1-3.7,10.1-11.2v-32.4c0-3.5-0.7-5.9-2.1-7.2c-1.4-1.2-3.7-2.8-6.9-4.8l-24.2-13.6c-5.3-2.8-9.2-5.2-11.6-7.2
				c-2.4-1.9-4.1-4.5-5.2-7.6c-1.1-3.1-1.6-7.1-1.6-12.1v-39.1c0-21.8,10.2-32.7,30.6-32.7h15.9c20.4,0,30.6,10.9,30.6,32.7v18.6
				H1257.7z"/>
		</g>
	</g>
	<path class="st0" d="M237.3,98.2L170,137.1l-13.7-85.8L237.3,98.2l34.2-19.8L135.8,0l-34.2,19.7l13.7,85.8L34.2,58.7L0,78.4l0,39.4
		l50.8,29.3v117.3l34.2,19.7V166.9l50.8,29.4v117.2l0.1,0v0.1l34.2-19.7v-0.1l67.4-38.8l34.2-59.3v-77.8L237.3,98.2z M237.4,215.4
		L170,254.3v-77.8l67.4-38.9V215.4z"/>
</g>
</svg>
