<?xml version="1.0" encoding="utf-8"?>
<!-- Generator: Adobe Illustrator 19.1.0, SVG Export Plug-In . SVG Version: 6.00 Build 0)  -->
<svg version="1.1" id="Layer_1" xmlns="http://www.w3.org/2000/svg" xmlns:xlink="http://www.w3.org/1999/xlink" x="0px" y="0px"
	 viewBox="0 0 512 512" style="enable-background:new 0 0 512 512;" xml:space="preserve">
<style type="text/css">
	.st0{fill:#FFFFFF;}
</style>
<path class="st0" d="M256,17.3L49.3,136.7v238.6L256,494.7l206.7-119.4V136.7L256,17.3z M410.7,335c-1.9,4.1-10.2,9.9-39.5,14.2
	c-2.4,0.3-3.3,3.3-4.7,9.5c-0.5,2.3-1,4.5-1.8,6.8c-0.6,2-2,3-4.2,3h-0.4c-1.6,0-3.8-0.3-6.6-0.8c-5-0.9-10.5-1.8-17.6-1.8
	c-4.1,0-8.4,0.3-12.7,1c-8.8,1.4-16.3,6.4-24.1,11.6c-10.8,7.9-22.7,15.8-41.1,15.8c-0.8,0-1.6,0-2.4-0.1c-0.5,0-1,0.1-1.6,0.1
	c-18.5,0-30.3-7.9-41.8-15.6c-7.9-5.3-15.4-10.3-24.2-11.7c-4.3-0.7-8.6-1-12.7-1c-7.4,0-13.3,1.1-17.6,1.9
	c-2.6,0.5-4.9,0.9-6.6,0.9c-1.8,0-3.7-0.4-4.6-3.1c-0.7-2.4-1.3-4.6-1.8-6.8c-1.3-5.7-2.2-9.2-4.8-9.5
	c-29.3-4.3-37.7-10.1-39.5-14.2c-0.3-0.6-0.4-1.2-0.5-1.8c-0.1-1.6,1.1-3,2.8-3.2c45-7,65.2-50.5,66-52.4c0-0.1,0-0.1,0.1-0.2
	c2.8-5.3,3.3-9.9,1.6-13.6c-3.1-6.9-13.2-9.9-19.8-11.9c-1.6-0.5-3.2-0.9-4.4-1.4c-13.3-5-14.4-10.1-13.9-12.7
	c0.9-4.4,7.2-7.5,12.2-7.5c1.4,0,2.6,0.2,3.6,0.7c6,2.7,11.4,4,16,4c6.4,0,9.2-2.6,9.6-2.9c-0.2-2.9-0.4-5.9-0.6-9
	c-1.3-20.1-3-45.1,3.7-59.4c20.2-42.8,63-46.1,75.6-46.1c0.3,0,5.5-0.1,5.5-0.1h0.7c12.7,0,55.6,3.3,75.7,46.1
	c6.7,14.3,5.1,39.3,3.7,59.4l-0.1,0.9c-0.2,2.8-0.4,5.5-0.5,8.1c0.3,0.3,2.9,2.7,8.7,2.9c4.4-0.2,9.5-1.5,15.1-4
	c1.6-0.7,3.5-0.9,4.7-0.9c1.9,0,3.8,0.3,5.4,1h0.1c4.5,1.5,7.5,4.5,7.5,7.6c0.1,2.9-2.3,7.4-14,11.7c-1.2,0.4-2.8,0.9-4.4,1.4
	c-6.7,2-16.7,5-19.8,11.9c-1.7,3.8-1.1,8.3,1.6,13.6c0,0.1,0.1,0.1,0.1,0.2c0.8,1.8,21,45.3,66,52.3c1.7,0.3,2.9,1.7,2.8,3.3
	C411.2,333.8,411,334.4,410.7,335z"/>
</svg>
