<?xml version="1.0" encoding="utf-8"?>
<!-- Generator: Adobe Illustrator 19.1.0, SVG Export Plug-In . SVG Version: 6.00 Build 0)  -->
<svg version="1.1" id="Layer_1" xmlns="http://www.w3.org/2000/svg" xmlns:xlink="http://www.w3.org/1999/xlink" x="0px" y="0px"
	 viewBox="0 0 512 512" style="enable-background:new 0 0 512 512;" xml:space="preserve">
<style type="text/css">
	.st0{fill:#FFFFFF;}
</style>
<path class="st0" d="M256,17.3L49.3,136.7v238.6L256,494.7l206.7-119.4V136.7L256,17.3z M371.9,196.4c0.1,2.5,0.2,5.1,0.2,7.7
	c0,79.2-60.3,170.4-170.4,170.4c-33.8,0-65.3-9.9-91.8-26.9c4.7,0.5,9.5,0.8,14.3,0.8c28.1,0,53.9-9.5,74.4-25.6
	c-26.2-0.5-48.3-17.8-55.9-41.6c3.7,0.7,7.4,1.1,11.3,1.1c5.5,0,10.8-0.7,15.8-2.1c-27.4-5.5-48-29.7-48-58.7c0-0.3,0-0.5,0-0.8
	c8.1,4.5,17.3,7.2,27.1,7.5c-16-10.7-26.6-29-26.6-49.8c0-11,3-21.3,8.1-30.1c29.5,36.3,73.6,60.1,123.4,62.6
	c-1.1-4.3-1.6-8.9-1.6-13.6c0-33.1,26.8-59.9,59.9-59.9c17.2,0,32.8,7.3,43.7,18.9c13.6-2.7,26.4-7.6,38-14.5
	c-4.4,14-13.9,25.7-26.3,33.1c12.1-1.4,23.7-4.6,34.4-9.4C393.9,177.5,383.8,188,371.9,196.4z"/>
</svg>
